REM DIRINDEX 1\6,1\2\7,1\2\8,1\2\9,1\3\10,1\3\11,1\4\12,1\4\13,1\4\14,1\5\15,1\5\16,1\5\17
REM DIRNAME cjc041,folder01,folder02,folder03,folder04,folder05,folder06,folder07,folder08,folder09,folder10,folder11,folder12,folder13,folder14,folder15,folder16
TITLE ""
FILE "3Q_t_0094-0109.mp3" MP3
  TRACK 01 AUDIO
    TITLE "10:cjc041_1792"
    INDEX 01 00:00:00
  TRACK 02 AUDIO
    TITLE "0:"
    INDEX 01 00:01:24
  TRACK 03 AUDIO
    TITLE "11:cjc041_1793"
    INDEX 01 00:02:04
  TRACK 04 AUDIO
    TITLE "0:"
    INDEX 01 00:03:55
  TRACK 05 AUDIO
    TITLE "10:cjc041_1794"
    INDEX 01 00:04:36
  TRACK 06 AUDIO
    TITLE "0:"
    INDEX 01 00:05:40
  TRACK 07 AUDIO
    TITLE "11:cjc041_1795"
    INDEX 01 00:06:16
  TRACK 08 AUDIO
    TITLE "0:"
    INDEX 01 00:07:07
  TRACK 09 AUDIO
    TITLE "10:cjc041_1796"
    INDEX 01 00:07:56
  TRACK 10 AUDIO
    TITLE "0:"
    INDEX 01 00:08:68
  TRACK 11 AUDIO
    TITLE "11:cjc041_1797"
    INDEX 01 00:09:44
  TRACK 12 AUDIO
    TITLE "0:"
    INDEX 01 00:10:37
  TRACK 13 AUDIO
    TITLE "10:cjc041_1798"
    INDEX 01 00:11:19
  TRACK 14 AUDIO
    TITLE "0:"
    INDEX 01 00:12:32
  TRACK 15 AUDIO
    TITLE "11:cjc041_1799"
    INDEX 01 00:13:08
  TRACK 16 AUDIO
    TITLE "0:"
    INDEX 01 00:14:43
  TRACK 17 AUDIO
    TITLE "10:cjc041_1800"
    INDEX 01 00:15:23
  TRACK 18 AUDIO
    TITLE "0:"
    INDEX 01 00:16:32
  TRACK 19 AUDIO
    TITLE "11:cjc041_1801"
    INDEX 01 00:17:14
  TRACK 20 AUDIO
    TITLE "0:"
    INDEX 01 00:18:05
  TRACK 21 AUDIO
    TITLE "10:cjc041_1802"
    INDEX 01 00:18:58
  TRACK 22 AUDIO
    TITLE "0:"
    INDEX 01 00:20:10
  TRACK 23 AUDIO
    TITLE "11:cjc041_1803"
    INDEX 01 00:20:65
  TRACK 24 AUDIO
    TITLE "0:"
    INDEX 01 00:21:70
  TRACK 25 AUDIO
    TITLE "10:cjc041_1804"
    INDEX 01 00:22:46
  TRACK 26 AUDIO
    TITLE "0:"
    INDEX 01 00:24:02
  TRACK 27 AUDIO
    TITLE "11:cjc041_1805"
    INDEX 01 00:24:57
  TRACK 28 AUDIO
    TITLE "0:"
    INDEX 01 00:26:64
  TRACK 29 AUDIO
    TITLE "10:cjc041_1806"
    INDEX 01 00:27:43
  TRACK 30 AUDIO
    TITLE "0:"
    INDEX 01 00:28:60
  TRACK 31 AUDIO
    TITLE "11:cjc041_1807"
    INDEX 01 00:29:40
  TRACK 32 AUDIO
    TITLE "0:"
    INDEX 01 00:31:35
  TRACK 33 AUDIO
    TITLE "10:cjc041_1808"
    INDEX 01 00:32:15
  TRACK 34 AUDIO
    TITLE "0:"
    INDEX 01 00:33:58
  TRACK 35 AUDIO
    TITLE "11:cjc041_1809"
    INDEX 01 00:34:40
  TRACK 36 AUDIO
    TITLE "0:"
    INDEX 01 00:35:66
  TRACK 37 AUDIO
    TITLE "10:cjc041_1810"
    INDEX 01 00:36:44
  TRACK 38 AUDIO
    TITLE "0:"
    INDEX 01 00:37:71
  TRACK 39 AUDIO
    TITLE "11:cjc041_1811"
    INDEX 01 00:38:53
  TRACK 40 AUDIO
    TITLE "0:"
    INDEX 01 00:39:58
  TRACK 41 AUDIO
    TITLE "10:cjc041_1812"
    INDEX 01 00:40:40
  TRACK 42 AUDIO
    TITLE "0:"
    INDEX 01 00:41:55
  TRACK 43 AUDIO
    TITLE "11:cjc041_1813"
    INDEX 01 00:42:35
  TRACK 44 AUDIO
    TITLE "0:"
    INDEX 01 00:44:52
  TRACK 45 AUDIO
    TITLE "10:cjc041_1814"
    INDEX 01 00:45:32
  TRACK 46 AUDIO
    TITLE "0:"
    INDEX 01 00:46:49
  TRACK 47 AUDIO
    TITLE "11:cjc041_1815"
    INDEX 01 00:47:25
  TRACK 48 AUDIO
    TITLE "0:"
    INDEX 01 00:48:40
  TRACK 49 AUDIO
    TITLE "10:cjc041_1816"
    INDEX 01 00:49:20
  TRACK 50 AUDIO
    TITLE "0:"
    INDEX 01 00:50:29
  TRACK 51 AUDIO
    TITLE "11:cjc041_1817"
    INDEX 01 00:51:03
  TRACK 52 AUDIO
    TITLE "0:"
    INDEX 01 00:52:22
  TRACK 53 AUDIO
    TITLE "10:cjc041_1818"
    INDEX 01 00:53:08
  TRACK 54 AUDIO
    TITLE "0:"
    INDEX 01 00:54:29
  TRACK 55 AUDIO
    TITLE "11:cjc041_1819"
    INDEX 01 00:55:06
  TRACK 56 AUDIO
    TITLE "0:"
    INDEX 01 00:56:25
  TRACK 57 AUDIO
    TITLE "10:cjc041_1820"
    INDEX 01 00:57:01
  TRACK 58 AUDIO
    TITLE "0:"
    INDEX 01 00:58:11
  TRACK 59 AUDIO
    TITLE "11:cjc041_1821"
    INDEX 01 00:58:66
  TRACK 60 AUDIO
    TITLE "0:"
    INDEX 01 00:59:67
  TRACK 61 AUDIO
    TITLE "10:cjc041_1822"
    INDEX 01 01:00:45
  TRACK 62 AUDIO
    TITLE "0:"
    INDEX 01 01:01:58
  TRACK 63 AUDIO
    TITLE "11:cjc041_1823"
    INDEX 01 01:02:42
  TRACK 64 AUDIO
    TITLE "0:"
    INDEX 01 01:04:37
